<?xml version="1.0"?>
<svg xmlns="http://www.w3.org/2000/svg" xmlns:xlink="http://www.w3.org/1999/xlink" xmlns:svgjs="http://svgjs.com/svgjs" version="1.1" width="512" height="512" x="0" y="0" viewBox="0 0 484.43 484.43" style="enable-background:new 0 0 512 512" xml:space="preserve" class=""><g><link type="text/css" rel="stylesheet" id="dark-mode-custom-link"/><link type="text/css" rel="stylesheet" id="dark-mode-general-link"/><style lang="en" type="text/css" id="dark-mode-custom-style"/><style lang="en" type="text/css" id="dark-mode-native-style"/>
<g xmlns="http://www.w3.org/2000/svg">
	<path d="M241.612,378.128c17.04,0,30.86-13.82,30.86-30.843V157.914h44.535l19.478,45.526c0.99,2.298,3.476,3.601,5.943,3.115   c2.468-0.521,4.243-2.691,4.243-5.205v-79.846c0-8.396-6.821-15.2-15.202-15.2H152.963c-8.397,0-15.187,6.805-15.187,15.2v79.828   c0,2.531,1.761,4.701,4.229,5.206c2.468,0.502,4.954-0.787,5.943-3.114l19.478-45.511h43.326v189.371   C210.753,364.307,224.572,378.128,241.612,378.128z" fill="#f1c40f" data-original="#000000" style="" class=""/>
	<rect x="129.888" y="32.749" width="224.658" height="32.193" fill="#f1c40f" data-original="#000000" style="" class=""/>
	<rect x="32.762" y="129.9" width="32.197" height="224.632" fill="#f1c40f" data-original="#000000" style="" class=""/>
	<rect x="129.888" y="419.488" width="224.658" height="32.195" fill="#f1c40f" data-original="#000000" style="" class=""/>
	<rect x="419.487" y="129.915" width="32.199" height="224.617" fill="#f1c40f" data-original="#000000" style="" class=""/>
	<path d="M75.947,386.727H21.761C9.748,386.727,0,396.473,0,408.483v54.189c0,12.01,9.748,21.756,21.761,21.756h54.186   c12.013,0,21.743-9.746,21.743-21.756v-54.189C97.69,396.473,87.96,386.727,75.947,386.727z" fill="#f1c40f" data-original="#000000" style="" class=""/>
	<path d="M462.673,386.727H408.5c-12.027,0-21.756,9.746-21.756,21.756v54.189c0,12.01,9.729,21.756,21.756,21.756h54.173   c12.026,0,21.757-9.746,21.757-21.756v-54.189C484.43,396.473,474.7,386.727,462.673,386.727z" fill="#f1c40f" data-original="#000000" style="" class=""/>
	<path d="M75.947,0.002H21.761C9.748,0.002,0,9.746,0,21.756v54.191c0,12.01,9.748,21.758,21.761,21.758h54.186   c12.013,0,21.743-9.748,21.743-21.758V21.756C97.69,9.746,87.96,0.002,75.947,0.002z" fill="#f1c40f" data-original="#000000" style="" class=""/>
	<path d="M462.673,0.017H408.5c-12.027,0-21.756,9.751-21.756,21.759v54.185c0,12.012,9.729,21.761,21.756,21.761h54.173   c12.026,0,21.757-9.749,21.757-21.761V21.776C484.43,9.768,474.7,0.017,462.673,0.017z" fill="#f1c40f" data-original="#000000" style="" class=""/>
</g>
<g xmlns="http://www.w3.org/2000/svg">
</g>
<g xmlns="http://www.w3.org/2000/svg">
</g>
<g xmlns="http://www.w3.org/2000/svg">
</g>
<g xmlns="http://www.w3.org/2000/svg">
</g>
<g xmlns="http://www.w3.org/2000/svg">
</g>
<g xmlns="http://www.w3.org/2000/svg">
</g>
<g xmlns="http://www.w3.org/2000/svg">
</g>
<g xmlns="http://www.w3.org/2000/svg">
</g>
<g xmlns="http://www.w3.org/2000/svg">
</g>
<g xmlns="http://www.w3.org/2000/svg">
</g>
<g xmlns="http://www.w3.org/2000/svg">
</g>
<g xmlns="http://www.w3.org/2000/svg">
</g>
<g xmlns="http://www.w3.org/2000/svg">
</g>
<g xmlns="http://www.w3.org/2000/svg">
</g>
<g xmlns="http://www.w3.org/2000/svg">
</g>
</g></svg>
